<svg width="24" height="22" viewBox="0 0 24 22" fill="none" xmlns="http://www.w3.org/2000/svg">
<path d="M4.45593 8.45853C4.84101 7.42049 5.46614 6.44436 6.34632 5.61107C9.47197 2.63505 14.538 2.63505 17.6637 5.61107L18.5189 6.43007H16.0033C15.1181 6.43007 14.403 7.11099 14.403 7.9538C14.403 8.79661 15.1181 9.47752 16.0033 9.47752H22.3797H22.3997C23.2849 9.47752 24 8.79661 24 7.9538V1.8589C24 1.01609 23.2849 0.335175 22.3997 0.335175C21.5145 0.335175 20.7993 1.01609 20.7993 1.8589V4.29686L19.9242 3.45881C15.5482 -0.707624 8.45676 -0.707624 4.08085 3.45881C2.8606 4.62065 1.98041 5.98724 1.4403 7.44906C1.14524 8.24426 1.58533 9.11088 2.4155 9.39181C3.24568 9.67275 4.16087 9.25373 4.45593 8.46329V8.45853ZM1.15024 12.5869C0.900188 12.6583 0.660138 12.7869 0.465097 12.9773C0.265055 13.1678 0.130027 13.3964 0.0600125 13.644C0.0450094 13.7011 0.0300062 13.763 0.0200041 13.8249C0.00500102 13.9058 0 13.9868 0 14.0677V20.1436C0 20.9864 0.715149 21.6673 1.60033 21.6673C2.48552 21.6673 3.20067 20.9864 3.20067 20.1436V17.7104L4.08085 18.5437C8.45676 22.7054 15.5482 22.7054 19.9191 18.5437C21.1394 17.3818 22.0246 16.0153 22.5647 14.5582C22.8598 13.763 22.4197 12.8964 21.5895 12.6154C20.7593 12.3345 19.8441 12.7535 19.5491 13.544C19.164 14.582 18.5389 15.5581 17.6587 16.3914C14.533 19.3674 9.46697 19.3674 6.34132 16.3914L6.33632 16.3867L5.48114 15.5724H8.00167C8.88685 15.5724 9.602 14.8915 9.602 14.0487C9.602 13.2059 8.88685 12.525 8.00167 12.525H1.62034C1.54032 12.525 1.4603 12.5297 1.38029 12.5393C1.30027 12.5488 1.22526 12.5631 1.15024 12.5869Z" fill="white"/>
</svg>
