<svg width="24" height="24" viewBox="0 0 24 24" fill="none" xmlns="http://www.w3.org/2000/svg">
<path d="M3.68375 0.23445C3.23844 -0.112425 2.60563 -0.0702373 2.2025 0.3282L0.3275 2.2032C-0.0709373 2.60164 -0.113125 3.23445 0.229063 3.68445L3.97906 8.55945C4.19 8.83601 4.52281 9.00008 4.86969 9.00008H7.40563L12.515 14.1095C11.8259 15.4688 12.0463 17.1751 13.1853 18.3095L18.4353 23.5595C19.0212 24.1454 19.9728 24.1454 20.5588 23.5595L23.5588 20.5595C24.1447 19.9735 24.1447 19.0219 23.5588 18.436L18.3088 13.186C17.1744 12.0516 15.4681 11.8266 14.1088 12.5157L8.99938 7.40633V4.87508C8.99938 4.52351 8.83531 4.19539 8.55875 3.98445L3.68375 0.23445ZM0.932188 18.5673C0.336875 19.1626 -0.000624785 19.9735 -0.000624785 20.8173C-0.000624785 22.5751 1.42438 24.0001 3.18219 24.0001C4.02594 24.0001 4.83687 23.6626 5.43219 23.0673L10.9541 17.5454C10.5884 16.5657 10.5322 15.5016 10.7853 14.4938L7.89312 11.6016L0.932188 18.5673ZM23.9994 6.75008C23.9994 6.25789 23.9478 5.77976 23.8494 5.32039C23.7369 4.79539 23.0947 4.65945 22.715 5.03914L19.7197 8.03445C19.5791 8.17508 19.3869 8.25476 19.19 8.25476H16.4994C16.0869 8.25476 15.7494 7.91726 15.7494 7.50476V4.80945C15.7494 4.61258 15.8291 4.42039 15.9697 4.27976L18.965 1.28445C19.3447 0.904763 19.2088 0.262575 18.6838 0.150075C18.2197 0.0516377 17.7416 7.52097e-05 17.2494 7.52097e-05C13.5228 7.52097e-05 10.4994 3.02351 10.4994 6.75008V6.78758L14.4978 10.786C16.1853 10.3595 18.0509 10.8095 19.3728 12.1313L20.1088 12.8673C22.4056 11.7891 23.9994 9.45476 23.9994 6.75008ZM4.87438 20.2501C4.87438 20.8735 4.37281 21.3751 3.74938 21.3751C3.12594 21.3751 2.62438 20.8735 2.62438 20.2501C2.62438 19.6266 3.12594 19.1251 3.74938 19.1251C4.37281 19.1251 4.87438 19.6266 4.87438 20.2501Z" fill="white"/>
</svg>
