<svg width="10" height="24" viewBox="0 0 10 24" fill="none" xmlns="http://www.w3.org/2000/svg">
<path d="M7.5 2.4C7.5 3.725 6.38021 4.8 5 4.8C3.61979 4.8 2.5 3.725 2.5 2.4C2.5 1.075 3.61979 0 5 0C6.38021 0 7.5 1.075 7.5 2.4ZM0 9.6C0 8.715 0.744792 8 1.66667 8H5C5.92188 8 6.66667 8.715 6.66667 9.6V20.8H8.33333C9.25521 20.8 10 21.515 10 22.4C10 23.285 9.25521 24 8.33333 24H1.66667C0.744792 24 0 23.285 0 22.4C0 21.515 0.744792 20.8 1.66667 20.8H3.33333V11.2H1.66667C0.744792 11.2 0 10.485 0 9.6Z" fill="#323232"/>
</svg>
