<svg width="20" height="24" viewBox="0 0 20 24" fill="none" xmlns="http://www.w3.org/2000/svg">
<path fill-rule="evenodd" clip-rule="evenodd" d="M0.730986 13.0006C0.730986 14.4776 1.13578 15.9545 1.94521 16.1877C5.02129 26.6041 15.059 26.6041 18.0544 16.1877C18.8638 15.8768 19.2686 14.4776 19.2686 13.0006H0.730986ZM3.56421 14.7885C6.31646 24.3496 13.5209 25.1273 16.4355 14.7885H16.5164H3.56421Z" fill="#323232"/>
<path fill-rule="evenodd" clip-rule="evenodd" d="M1.21697 9.42514C1.29793 5.53856 3.32173 3.05094 5.91192 1.80707L6.80231 6.70449C6.96423 7.48174 8.25939 7.24871 8.09748 6.47127L7.12615 1.34094C7.20711 -0.446979 12.7926 -0.446979 12.8735 1.34094L11.9021 6.47127C11.7402 7.24852 13.0354 7.48176 13.1163 6.70449L14.0067 1.80707C16.678 3.05077 18.6208 5.53834 18.783 9.42514C20.483 9.65837 20.402 12.2235 18.5401 12.2235H1.45989C-0.402004 12.2235 -0.482941 9.65835 1.21702 9.42514H1.21697Z" fill="#323232"/>
</svg>
