<svg version="1.1" id="Layer_1" xmlns="http://www.w3.org/2000/svg" xmlns:xlink="http://www.w3.org/1999/xlink" x="0px" y="0px"
	 width="100%" viewBox="0 0 512 512" enable-background="new 0 0 512 512" xml:space="preserve">
<path fill="#2196F3" opacity="1.000000" stroke="none" 
	d="
M225.000000,1.000000 
	C246.020889,1.000000 267.041779,1.000000 288.198944,1.340120 
	C289.343475,2.118520 290.312775,2.765532 291.366150,2.962144 
	C299.992065,4.572158 308.714264,5.748763 317.254730,7.718156 
	C339.157379,12.768791 359.812592,21.003548 379.611481,31.754648 
	C397.640472,41.544670 414.271515,53.211910 429.262878,67.034645 
	C438.828522,75.854599 447.461945,85.749290 455.996674,95.609299 
	C470.023895,111.814651 480.930115,130.059158 489.919678,149.502625 
	C500.763733,172.957275 508.106110,197.378784 511.084045,223.085770 
	C511.165436,223.788391 512.336914,224.364746 513.000000,225.000000 
	C513.000000,246.020889 513.000000,267.041779 512.650146,288.206543 
	C511.870361,289.195618 511.200684,289.999756 511.047852,290.892365 
	C509.592346,299.393463 508.776428,308.045166 506.724792,316.395142 
	C501.214600,338.821350 493.107635,360.287384 481.877533,380.557800 
	C472.193237,398.037994 460.938812,414.467926 447.260254,428.929321 
	C436.869720,439.914459 425.369965,449.944489 413.718079,459.622101 
	C392.131378,477.551117 367.490875,490.224579 341.069885,499.435699 
	C324.785980,505.112762 308.134308,509.358551 290.906952,511.086548 
	C290.214294,511.156006 289.633118,512.336914 289.000000,513.000000 
	C267.979095,513.000000 246.958206,513.000000 225.801788,512.661194 
	C224.825699,511.885345 224.023590,511.183136 223.138275,511.054749 
	C217.805710,510.281525 212.366165,510.039429 207.123688,508.886383 
	C181.529907,503.257263 156.968506,494.870239 133.932877,482.068024 
	C107.154175,467.185547 83.815201,448.294891 63.621674,425.253021 
	C47.390221,406.732086 34.266987,386.362946 23.964081,364.042053 
	C13.203166,340.728943 5.726068,316.526306 2.915931,290.941162 
	C2.838096,290.232513 1.663287,289.644348 1.000001,289.000000 
	C1.000000,267.979095 1.000000,246.958206 1.351303,225.792328 
	C2.121574,224.967926 2.796756,224.331573 2.919382,223.602310 
	C3.998627,217.184097 4.807961,210.716843 6.019293,204.325150 
	C11.204219,176.966354 21.338280,151.366821 35.363518,127.484589 
	C51.447609,100.096527 72.032143,76.348183 96.977837,56.520977 
	C113.716652,43.216728 131.751495,32.071365 151.265900,23.249283 
	C174.204605,12.879134 198.003510,5.748987 223.058472,2.916057 
	C223.768784,2.835744 224.355606,1.663235 225.000000,1.000000 
M267.507477,322.007477 
	C306.272217,283.243408 345.038269,244.480682 383.796844,205.710434 
	C385.326965,204.179871 386.915497,202.681107 388.257111,200.992905 
	C398.345398,188.297928 391.487854,169.837296 375.575348,166.783463 
	C367.248138,165.185349 360.742340,168.386963 354.952667,174.192322 
	C315.770782,213.480301 276.512665,252.692245 237.273544,291.923065 
	C235.903671,293.292664 234.473969,294.602386 232.413635,296.568390 
	C230.970322,294.743927 229.961441,293.177338 228.675369,291.887024 
	C212.207138,275.364990 195.761719,258.819336 179.176315,242.415314 
	C170.261841,233.598328 157.156723,233.481979 148.714630,241.841095 
	C140.024780,250.445496 140.121796,263.517120 149.205994,272.649323 
	C171.885651,295.448883 194.622253,318.192352 217.428268,340.865509 
	C226.706192,350.089417 239.211395,350.019989 248.606430,340.866730 
	C254.812042,334.820801 260.878632,328.632202 267.507477,322.007477 
z"/>
<path fill="#000000" opacity="1.000000" stroke="none" 
	d="
M513.000000,224.531342 
	C512.336914,224.364746 511.165436,223.788391 511.084045,223.085770 
	C508.106110,197.378784 500.763733,172.957275 489.919678,149.502625 
	C480.930115,130.059158 470.023895,111.814651 455.996674,95.609299 
	C447.461945,85.749290 438.828522,75.854599 429.262878,67.034645 
	C414.271515,53.211910 397.640472,41.544670 379.611481,31.754648 
	C359.812592,21.003548 339.157379,12.768791 317.254730,7.718156 
	C308.714264,5.748763 299.992065,4.572158 291.366150,2.962144 
	C290.312775,2.765532 289.343475,2.118520 288.667603,1.340120 
	C363.593719,1.000000 438.187408,1.000000 513.000000,1.000000 
	C513.000000,75.354088 513.000000,149.708389 513.000000,224.531342 
z"/>
<path fill="#000000" opacity="1.000000" stroke="none" 
	d="
M289.468628,513.000000 
	C289.633118,512.336914 290.214294,511.156006 290.906952,511.086548 
	C308.134308,509.358551 324.785980,505.112762 341.069885,499.435699 
	C367.490875,490.224579 392.131378,477.551117 413.718079,459.622101 
	C425.369965,449.944489 436.869720,439.914459 447.260254,428.929321 
	C460.938812,414.467926 472.193237,398.037994 481.877533,380.557800 
	C493.107635,360.287384 501.214600,338.821350 506.724792,316.395142 
	C508.776428,308.045166 509.592346,299.393463 511.047852,290.892365 
	C511.200684,289.999756 511.870361,289.195618 512.650146,288.675232 
	C513.000000,363.593719 513.000000,438.187408 513.000000,513.000000 
	C438.645905,513.000000 364.291626,513.000000 289.468628,513.000000 
z"/>
<path fill="#000000" opacity="1.000000" stroke="none" 
	d="
M1.000001,289.468658 
	C1.663287,289.644348 2.838096,290.232513 2.915931,290.941162 
	C5.726068,316.526306 13.203166,340.728943 23.964081,364.042053 
	C34.266987,386.362946 47.390221,406.732086 63.621674,425.253021 
	C83.815201,448.294891 107.154175,467.185547 133.932877,482.068024 
	C156.968506,494.870239 181.529907,503.257263 207.123688,508.886383 
	C212.366165,510.039429 217.805710,510.281525 223.138275,511.054749 
	C224.023590,511.183136 224.825699,511.885345 225.333130,512.661194 
	C150.406296,513.000000 75.812599,513.000000 1.000000,513.000000 
	C1.000000,438.645905 1.000000,364.291626 1.000001,289.468658 
z"/>
<path fill="#000000" opacity="1.000000" stroke="none" 
	d="
M224.531342,1.000000 
	C224.355606,1.663235 223.768784,2.835744 223.058472,2.916057 
	C198.003510,5.748987 174.204605,12.879134 151.265900,23.249283 
	C131.751495,32.071365 113.716652,43.216728 96.977837,56.520977 
	C72.032143,76.348183 51.447609,100.096527 35.363518,127.484589 
	C21.338280,151.366821 11.204219,176.966354 6.019293,204.325150 
	C4.807961,210.716843 3.998627,217.184097 2.919382,223.602310 
	C2.796756,224.331573 2.121574,224.967926 1.351303,225.323669 
	C1.000000,150.406296 1.000000,75.812576 1.000000,1.000000 
	C75.354088,1.000000 149.708389,1.000000 224.531342,1.000000 
z"/>
<path fill="#F9FAFA" opacity="1.000000" stroke="none" 
	d="
M267.257477,322.257477 
	C260.878632,328.632202 254.812042,334.820801 248.606430,340.866730 
	C239.211395,350.019989 226.706192,350.089417 217.428268,340.865509 
	C194.622253,318.192352 171.885651,295.448883 149.205994,272.649323 
	C140.121796,263.517120 140.024780,250.445496 148.714630,241.841095 
	C157.156723,233.481979 170.261841,233.598328 179.176315,242.415314 
	C195.761719,258.819336 212.207138,275.364990 228.675369,291.887024 
	C229.961441,293.177338 230.970322,294.743927 232.413635,296.568390 
	C234.473969,294.602386 235.903671,293.292664 237.273544,291.923065 
	C276.512665,252.692245 315.770782,213.480301 354.952667,174.192322 
	C360.742340,168.386963 367.248138,165.185349 375.575348,166.783463 
	C391.487854,169.837296 398.345398,188.297928 388.257111,200.992905 
	C386.915497,202.681107 385.326965,204.179871 383.796844,205.710434 
	C345.038269,244.480682 306.272217,283.243408 267.257477,322.257477 
z"/>
</svg>