<svg width="18" height="24" viewBox="0 0 18 24" fill="none" xmlns="http://www.w3.org/2000/svg">
<path d="M3 0C1.34531 0 0 1.34531 0 3V21C0 22.6547 1.34531 24 3 24H15C16.6547 24 18 22.6547 18 21V7.5H12C11.1703 7.5 10.5 6.82969 10.5 6V0H3ZM12 0V6H18L12 0ZM3.75 3H6.75C7.1625 3 7.5 3.3375 7.5 3.75C7.5 4.1625 7.1625 4.5 6.75 4.5H3.75C3.3375 4.5 3 4.1625 3 3.75C3 3.3375 3.3375 3 3.75 3ZM3.75 6H6.75C7.1625 6 7.5 6.3375 7.5 6.75C7.5 7.1625 7.1625 7.5 6.75 7.5H3.75C3.3375 7.5 3 7.1625 3 6.75C3 6.3375 3.3375 6 3.75 6ZM6.29062 17.8969C6.00469 18.8484 5.12812 19.5 4.13437 19.5H3.75C3.3375 19.5 3 19.1625 3 18.75C3 18.3375 3.3375 18 3.75 18H4.13437C4.46719 18 4.75781 17.7844 4.85156 17.4656L5.55 15.1453C5.70937 14.6156 6.19688 14.25 6.75 14.25C7.30312 14.25 7.79063 14.6109 7.95 15.1453L8.49375 16.9547C8.84062 16.6641 9.28125 16.5 9.75 16.5C10.4953 16.5 11.175 16.9219 11.5078 17.5875L11.7141 18H14.25C14.6625 18 15 18.3375 15 18.75C15 19.1625 14.6625 19.5 14.25 19.5H11.25C10.9641 19.5 10.7063 19.3406 10.5797 19.0875L10.1672 18.2578C10.0875 18.0984 9.92813 18 9.75469 18C9.58125 18 9.41719 18.0984 9.34219 18.2578L8.92969 19.0875C8.79375 19.3641 8.49844 19.5281 8.19375 19.5C7.88906 19.4719 7.62656 19.2609 7.54219 18.9703L6.75 16.3594L6.29062 17.8969Z" fill="#323232"/>
</svg>
